<?xml version="1.0" encoding="UTF-8"?>
<svg version="1.1" xmlns="http://www.w3.org/2000/svg" width="1707" height="944">
<path d="M0 0 C1.83428389 -0.00417467 3.66856448 -0.01010125 5.50283772 -0.01761746 C10.55398844 -0.03321457 15.60483393 -0.02386311 20.65597976 -0.01050565 C26.14719753 -0.00037248 31.63836797 -0.01339309 37.12957907 -0.02347898 C46.75718011 -0.03794099 56.38469147 -0.03747814 66.01229668 -0.02729034 C79.65898064 -0.01288875 93.30559007 -0.01873551 106.95227409 -0.03040652 C131.70580008 -0.05156149 156.45929085 -0.05299972 181.21282196 -0.04181671 C181.94624085 -0.04148553 182.67965974 -0.04115435 183.43530345 -0.04081313 C184.16989526 -0.04048141 184.90448707 -0.04014969 185.66133924 -0.03980792 C208.03485816 -0.029718 230.40836252 -0.02710831 252.78188324 -0.0318985 C254.27971417 -0.03220842 255.7775451 -0.03251704 257.27537603 -0.03282438 C263.29443361 -0.03406623 269.31349118 -0.0353409 275.33254874 -0.03666343 C292.15863954 -0.04033159 308.98473038 -0.0426139 325.81082153 -0.04380798 C326.5770622 -0.04386257 327.34330286 -0.04391715 328.13276294 -0.04397339 C352.55103018 -0.04561066 376.96929234 -0.04110208 401.38755798 -0.03240967 C402.17962249 -0.03212867 402.97168699 -0.03184768 403.78775345 -0.03155816 C416.65062728 -0.02697829 429.513501 -0.02210048 442.37637471 -0.01719747 C493.39305343 0.0022281 544.40969017 0.00132648 595.42636871 -0.01811981 C608.28273006 -0.02300451 621.13909142 -0.02784869 633.99545288 -0.03240967 C635.18284848 -0.03283236 635.18284848 -0.03283236 636.39423188 -0.03326359 C660.78688503 -0.04188742 685.1795347 -0.04554559 709.57218933 -0.04380798 C710.33786838 -0.04375365 711.10354743 -0.04369931 711.89242888 -0.04364333 C728.69977962 -0.04239345 745.50712999 -0.03985897 762.31448036 -0.03616597 C768.32817916 -0.03484939 774.34187796 -0.03359707 780.35557678 -0.03236313 C781.85164875 -0.03205357 783.34772072 -0.03173865 784.84379268 -0.03141834 C807.21177041 -0.02664257 829.57973173 -0.03071246 851.94770741 -0.04081313 C852.6811263 -0.04114431 853.4145452 -0.04147549 854.1701889 -0.04181671 C854.90225673 -0.04214744 855.63432457 -0.04247817 856.38857627 -0.04281892 C881.07021969 -0.05384751 905.75182084 -0.04980213 930.43345821 -0.02869374 C944.66884416 -0.01692573 958.90413001 -0.01621476 973.13951342 -0.03127843 C982.63959814 -0.04022445 992.13960234 -0.03470846 1001.6396751 -0.01725936 C1007.05820132 -0.00771345 1012.47652814 -0.00455433 1017.89504832 -0.01888329 C1022.8222072 -0.03178043 1027.74898934 -0.02635031 1032.67612063 -0.00616065 C1034.44957259 -0.00212442 1036.22305557 -0.00481641 1037.99648298 -0.0149844 C1050.20630293 -0.08003456 1059.17082467 0.96063692 1068.40244293 9.58539581 C1075.93046856 17.65583377 1077.50001082 26.46600821 1077.44598103 37.17430687 C1077.4491875 38.12265418 1077.45239398 39.07100148 1077.45569763 40.04808658 C1077.46399945 43.22610192 1077.45807262 46.4039289 1077.45220184 49.58194733 C1077.45522244 51.88336471 1077.45911145 54.18478108 1077.46379441 56.48619568 C1077.47409497 62.81091019 1077.47188733 69.13556814 1077.46761382 75.46028733 C1077.46442928 81.5806227 1077.47255454 87.70094865 1077.47937407 93.82127935 C1077.49461331 107.88462075 1077.49631922 121.94794415 1077.49385104 136.01129209 C1077.4920183 146.8710493 1077.49377761 157.73080062 1077.49807549 168.5905571 C1077.49867789 170.15084035 1077.49927908 171.71112361 1077.49987909 173.27140687 C1077.50078634 175.62261137 1077.50169501 177.97381587 1077.50261144 180.32502038 C1077.51104087 202.18494415 1077.51537672 224.04486571 1077.51120472 245.90479088 C1077.51104834 246.72884659 1077.51089197 247.5529023 1077.51073085 248.4019294 C1077.50992507 252.57855767 1077.5090793 256.75518592 1077.50821755 260.93181418 C1077.50804646 261.76130382 1077.50787538 262.59079346 1077.5076991 263.44541915 C1077.50735245 265.12284842 1077.50700392 266.80027768 1077.50665352 268.47770695 C1077.50129597 294.58018561 1077.50922772 320.68263049 1077.52768707 346.78510284 C1077.54840281 376.1125574 1077.55913063 405.43999103 1077.55511159 434.76745331 C1077.55471624 437.89448237 1077.55435469 441.02151143 1077.55401421 444.1485405 C1077.55387811 445.3034681 1077.55387811 445.3034681 1077.55373926 446.48172757 C1077.55257329 458.10491423 1077.55922157 469.72807976 1077.56982613 481.35126114 C1077.58187405 494.56992267 1077.58344177 507.78853765 1077.57103596 521.00719987 C1077.56498861 527.75266569 1077.56407944 534.49803502 1077.57603836 541.24349594 C1077.58685794 547.41800291 1077.58384051 553.59234242 1077.56977668 559.76684143 C1077.56711893 562.00095108 1077.56952992 564.2350737 1077.57751254 566.46917067 C1077.58761239 569.50656246 1077.5792015 572.54337148 1077.56623554 575.58073997 C1077.57354489 576.44740781 1077.58085423 577.31407565 1077.58838508 578.20700616 C1077.50280648 587.88364719 1075.06456142 596.48585039 1068.21494293 603.53852081 C1061.25701849 610.12583416 1055.0351463 612.97937622 1045.34444213 612.88286406 C1044.59197655 612.8874437 1043.83951097 612.89202335 1043.0642434 612.89674177 C1040.54746153 612.9084152 1038.03122282 612.89880503 1035.51443863 612.88926792 C1033.68222951 612.89330876 1031.8500229 612.89866094 1030.01782101 612.90520462 C1024.96779646 612.91940733 1019.91793397 612.91488562 1014.86790138 612.90737131 C1009.3795446 612.90247759 1003.89122278 612.91488997 998.40287709 612.92509884 C988.77867151 612.9405739 979.15451121 612.94481018 969.53029442 612.9417305 C955.88811609 612.93737572 942.24598643 612.94814631 928.60381711 612.96314922 C900.8889631 612.99358385 873.17412728 613.00276722 845.45925847 613.00452555 C842.47599723 613.00471979 839.49273599 613.00492361 836.50947475 613.00513577 C835.76917601 613.00518679 835.02887727 613.0052378 834.26614523 613.00529036 C817.86240264 613.00651565 801.45866353 613.01308512 785.05492279 613.02060331 C778.30079739 613.02368837 771.54667195 613.02665846 764.79254651 613.02965206 C764.04627784 613.02998383 763.30000917 613.0303156 762.5311263 613.03065742 C719.76509184 613.04963021 676.99905966 613.0620047 634.23302078 613.06063175 C632.63250302 613.06058442 631.03198525 613.06053721 629.43146748 613.06049013 C622.20522764 613.06026998 614.97898781 613.06000547 607.75274797 613.05972847 C604.53036934 613.0596051 601.30799072 613.05948466 598.08561209 613.05936453 C596.47275345 613.05930335 594.85989481 613.05924029 593.24703617 613.05917535 C542.2439615 613.05713451 491.24094931 613.07908822 440.23789215 613.1207962 C427.38718306 613.1312992 414.5364739 613.14170756 401.68576431 613.15158939 C400.89450254 613.15219802 400.10324078 613.15280664 399.28800138 613.1534337 C374.90196624 613.1720776 350.51593623 613.18337517 326.12989426 613.18716335 C325.36430869 613.18728321 324.59872313 613.18740306 323.809938 613.18752654 C307.00376365 613.19008633 290.19758961 613.19086997 273.3914151 613.19001541 C267.37791405 613.18972596 261.364413 613.18956983 255.35091194 613.18947922 C253.85489829 613.18945548 252.35888463 613.18942487 250.86287098 613.18938735 C227.02307268 613.18885834 203.18332785 613.20595433 179.34354488 613.2318488 C155.33332956 613.25779584 131.32318828 613.26437476 107.31296483 613.24456484 C92.41480616 613.23227671 77.51688733 613.23600117 62.61875328 613.26673944 C53.11816121 613.28468849 43.61773951 613.28090949 34.11715537 613.25932794 C28.70070521 613.24764043 23.28470965 613.24547847 17.86829087 613.2697 C12.93942114 613.29154867 8.01138424 613.28571514 3.08255149 613.2579284 C1.31189578 613.25276989 -0.45882526 613.25763236 -2.22941438 613.27383202 C-13.61169454 613.3709863 -23.10663114 612.51052766 -32.03435226 604.50823436 C-38.97125633 597.40231064 -41.4145923 589.32333992 -41.31744576 579.59002209 C-41.32385871 578.62761314 -41.33027167 577.66520419 -41.33687896 576.67363134 C-41.35346184 573.45360119 -41.34163724 570.23431672 -41.32988739 567.0142746 C-41.33592958 564.68041743 -41.34370812 562.34656422 -41.35307252 560.01271802 C-41.37150367 554.27452954 -41.37133396 548.53655233 -41.36324928 542.79834484 C-41.35458911 535.92263062 -41.36911949 529.04701412 -41.38423184 522.17131804 C-41.41470197 507.91655752 -41.41812299 493.66186808 -41.41318579 479.40708181 C-41.40951943 468.39861773 -41.41304072 457.39017694 -41.42163467 446.38171577 C-41.42283948 444.7997255 -41.42404188 443.21773522 -41.42524188 441.63574493 C-41.4270564 439.25178548 -41.42887374 436.86782602 -41.43070658 434.48386658 C-41.44756431 412.3206499 -41.45623797 390.15744198 -41.44789314 367.99421978 C-41.44758039 367.15881764 -41.44726764 366.3234155 -41.44694541 365.46269814 C-41.44533386 361.22862421 -41.44364232 356.99455032 -41.44191881 352.76047643 C-41.44157663 351.91958801 -41.44123445 351.07869958 -41.44088191 350.21232969 C-41.4401886 348.51184925 -41.43949154 346.8113688 -41.43879074 345.11088836 C-41.42807673 318.65238694 -41.44393646 292.19401884 -41.48085785 265.7355423 C-41.52229901 236.00335954 -41.54374305 206.27125937 -41.53570688 176.53904611 C-41.5349162 173.3681843 -41.5341931 170.19732248 -41.53351212 167.02646065 C-41.53333065 166.24572505 -41.53314919 165.46498946 -41.53296223 164.66059522 C-41.53063124 152.87967212 -41.54391953 141.09883247 -41.56513596 129.31793022 C-41.58924403 115.91777999 -41.59235337 102.51781346 -41.56755562 89.11766049 C-41.55546936 82.28071939 -41.55283408 75.44410563 -41.57756042 68.60718918 C-41.59922776 62.34670927 -41.59313222 56.08688932 -41.56503706 49.82644061 C-41.55972921 47.56338897 -41.56452006 45.30028602 -41.58050878 43.03728464 C-41.73741451 19.16998876 -41.73741451 19.16998876 -32.8133713 9.29582566 C-30.872183 7.38125041 -29.13178447 5.94463003 -26.80849457 4.50336456 C-26.28749061 4.17211453 -25.76648665 3.84086451 -25.22969469 3.4995766 C-17.32313426 -0.77191889 -8.71795696 -0.0499846 0 0 Z " fill="#F2E7BB" transform="translate(40.808494567871094,-0.5033645629882813)"/>
<path d="M0 0 C-0.63347562 11.34269416 -2.14622032 22.56602924 -3.60940552 33.82492065 C-4.40279907 39.93186538 -5.18482737 46.04027114 -5.96875 52.1484375 C-6.2166201 54.07625313 -6.2166201 54.07625313 -6.46949768 56.04301453 C-8.28229827 70.15815824 -10.04746782 84.27918392 -11.80844879 98.40087128 C-12.14780574 101.12136257 -12.48762581 103.84179593 -12.82746315 106.56222725 C-14.31131586 118.44079058 -15.79285801 130.31963644 -17.26472473 142.19969177 C-17.78448119 146.39351131 -18.3056214 150.5871584 -18.82687378 154.78079224 C-19.16416671 157.49942981 -19.49929062 160.21832737 -19.83422852 162.93725586 C-21.16152849 173.64779764 -22.58554243 184.34358983 -24.04547882 195.03672218 C-26.6268406 213.9555721 -29.00091658 232.89579245 -31.30963135 251.84963989 C-32.382976 260.65973817 -33.4654356 269.46871663 -34.55078125 278.27734375 C-34.70986088 279.56862844 -34.70986088 279.56862844 -34.87215424 280.88599968 C-37.42808124 301.61115196 -40.14947568 322.31328706 -43 343 C-68.76728013 344.16768611 -94.52069675 345.11597809 -120.3125 345.5 C-140.19871677 345.7973768 -160.06022043 346.34468534 -179.93521118 347.06686401 C-199.03982848 347.74885768 -218.14439537 348.18730955 -237.2578125 348.5390625 C-238.45519421 348.56114588 -239.65257591 348.58322926 -240.88624191 348.60598183 C-253.06128057 348.82929706 -265.23645827 349.04292409 -277.41189384 349.24343872 C-282.00701767 349.31978013 -286.60208094 349.39943065 -291.19713974 349.47957993 C-294.40808365 349.53412568 -297.61908053 349.58354654 -300.83010864 349.63284302 C-302.77671776 349.66649698 -304.72332247 349.70040748 -306.66992188 349.73461914 C-307.54742788 349.74658797 -308.42493389 349.7585568 -309.32903099 349.77088833 C-310.13951204 349.78619626 -310.9499931 349.80150419 -311.78503418 349.817276 C-312.48287773 349.82850526 -313.18072128 349.83973452 -313.89971161 349.85130405 C-316.32532141 350.02303206 -318.62651818 350.48151056 -321 351 C-319.78447323 351.04030807 -318.56894646 351.08061613 -317.31658554 351.12214565 C-288.42874695 352.08022902 -259.54101268 353.04141437 -230.65340362 354.00639283 C-227.0938063 354.12529699 -223.53420811 354.2441751 -219.97460938 354.36303711 C-219.26599078 354.38669972 -218.55737219 354.41036232 -217.82728031 354.43474198 C-206.37029077 354.8172584 -194.91323218 355.19766739 -183.45614645 355.57729047 C-171.69032491 355.96719054 -159.92458099 356.3593718 -148.15890527 356.75364786 C-141.55445154 356.97490284 -134.94996381 357.19504733 -128.34539032 357.41270256 C-122.1237835 357.61777037 -115.90227732 357.82566197 -109.68083572 358.03568077 C-107.40252998 358.11209889 -105.12418992 358.18750234 -102.84581375 358.26179123 C-80.72669443 358.98410935 -80.72669443 358.98410935 -71 360 C-71.56629736 365.81278021 -72.3864944 371.49166764 -73.56640625 377.21020508 C-73.72100311 377.97562622 -73.87559998 378.74104736 -74.03488159 379.52966309 C-74.54029535 382.0270726 -75.05130589 384.5232991 -75.5625 387.01953125 C-75.91771927 388.76822011 -76.27261304 390.51697511 -76.62719727 392.26579285 C-77.3678949 395.91490868 -78.11112352 399.56349579 -78.85644531 403.21166992 C-79.81141113 407.88604077 -80.76214194 412.56125939 -81.71125793 417.23682117 C-82.61867266 421.70632912 -83.52792319 426.17546288 -84.4375 430.64453125 C-84.69697922 431.92022445 -84.69697922 431.92022445 -84.96170044 433.22168922 C-85.45133335 435.62692029 -85.94224076 438.03188739 -86.43359375 440.43676758 C-86.57803925 441.14695541 -86.72248474 441.85714325 -86.87130737 442.58885193 C-87.51726668 445.74390459 -88.17992797 448.88511424 -89 452 C-106.80840566 452.13961294 -124.60115414 451.74462745 -142.40274811 451.31290436 C-145.0542719 451.24868556 -147.70581497 451.18530953 -150.35736084 451.12200928 C-194.50173113 450.06300412 -238.63714326 448.6893558 -282.77346802 447.34371948 C-283.48985329 447.32187894 -284.20623856 447.30003841 -284.94433248 447.27753603 C-288.58475496 447.16654579 -292.22517654 447.05552606 -295.86559677 446.94446182 C-329.62512961 445.91474284 -363.38564741 444.91943645 -397.14666462 443.93966961 C-399.37923822 443.874877 -401.61181074 443.81004701 -403.84438324 443.74521637 C-438.7375333 442.73230755 -473.63087056 441.74430074 -508.5284729 440.89596558 C-542.61728562 440.06659448 -576.70237611 439.10300085 -610.78769314 438.14243567 C-616.38510522 437.98469503 -621.98252824 437.8273472 -627.57995605 437.67016602 C-635.2065002 437.4559526 -642.83301443 437.2406956 -650.4595089 437.02472115 C-653.28438186 436.94473672 -656.109263 436.86505243 -658.9341526 436.78565788 C-677.95835025 436.25060023 -696.97951301 435.65247909 -716 435 C-715.39164483 419.88045435 -713.55162848 404.95580112 -711.68640137 389.94610596 C-711.26683512 386.56025365 -710.85338019 383.17365492 -710.43945312 379.78710938 C-709.63274178 373.19058441 -708.81616607 366.59538901 -708 360 C-726.48 360.33 -744.96 360.66 -764 361 C-765.15077572 354.67073354 -766.25461048 348.58183267 -767 342.234375 C-767.08121094 341.55304504 -767.16242188 340.87171509 -767.24609375 340.16973877 C-767.50059085 338.03018903 -767.75056806 335.89014556 -768 333.75 C-769.6214632 319.97706358 -771.34504023 306.23049291 -773.43359375 292.51953125 C-775.14491021 281.26376967 -776.6101508 269.9791211 -778.0625 258.6875 C-778.32077185 256.68942834 -778.57923487 254.69138138 -778.83789062 252.69335938 C-779.21570522 249.77483135 -779.59350816 246.85630207 -779.97085571 243.93771362 C-781.90993034 228.94886801 -783.9532061 213.97444527 -786 199 C-786.39290191 196.12551022 -786.7857244 193.25100977 -787.17822266 190.37646484 C-787.43281269 188.51216703 -787.68769182 186.64790866 -787.94287109 184.78369141 C-788.49424066 180.747841 -789.04098819 176.71170198 -789.5625 172.671875 C-790.2629747 167.26508587 -790.98349024 161.89091245 -792.0078125 156.53515625 C-793.19699024 150.24966806 -793.90299375 143.9121546 -794.63079834 137.56051636 C-795.84729102 126.98469199 -797.1662144 116.44670834 -798.875 105.9375 C-801.30808082 90.92028734 -803.06670897 75.81314482 -804.89404297 60.71264648 C-805.0804837 59.18581741 -805.0804837 59.18581741 -805.27069092 57.62814331 C-805.50358335 55.7193321 -805.7338232 53.81019438 -805.96075439 51.90066528 C-806.63056257 46.4203308 -807.51387373 41.02933091 -808.61056519 35.61741638 C-809.04261044 32.71361249 -809.06265488 29.93158288 -809 27 C-808.26498764 26.97938507 -807.52997528 26.95877014 -806.77268982 26.93753052 C-797.32747677 26.67180551 -787.88243071 26.40055991 -778.4375 26.125 C-777.67164707 26.10266296 -776.90579414 26.08032593 -776.11673355 26.05731201 C-756.07417001 25.47122699 -736.04210295 24.80066802 -716.01184082 23.8765564 C-694.45535486 22.89126546 -672.88673361 22.32298894 -651.31591892 21.75615501 C-647.6832287 21.66052648 -644.05058229 21.56334098 -640.41796875 21.46484375 C-639.71568838 21.44580364 -639.01340801 21.42676353 -638.28984642 21.40714645 C-630.89120246 21.20371712 -623.50050193 20.97317046 -616.11328125 20.50390625 C-607.60322309 19.96375676 -599.08523835 19.73504045 -590.5625 19.5 C-589.44321074 19.469071 -589.44321074 19.469071 -588.30130959 19.43751717 C-582.07968816 19.26660574 -575.85790194 19.10200082 -569.6361084 18.9375 C-564.23649363 18.79448605 -558.83694732 18.64920954 -553.4375 18.5 C-552.68977325 18.479375 -551.94204651 18.45875 -551.17166138 18.4375 C-543.44174046 18.22161163 -535.71824682 17.9923676 -528 17.5 C-519.52782943 16.95953759 -511.04744874 16.73404548 -502.5625 16.5 C-501.81614288 16.479375 -501.06978577 16.45875 -500.30081177 16.4375 C-494.07935629 16.26659419 -487.85773596 16.10199643 -481.6361084 15.9375 C-476.23649363 15.79448605 -470.83694754 15.6492014 -465.4375 15.5 C-464.69037561 15.47939577 -463.94325123 15.45879154 -463.17348671 15.43756294 C-454.74302824 15.20216263 -446.3265715 14.90517756 -437.90910339 14.37046814 C-430.47292473 13.92228517 -423.02809852 13.7370505 -415.58203125 13.53515625 C-414.87891375 13.5160853 -414.17579624 13.49701435 -413.45137215 13.47736549 C-409.77160435 13.37816211 -406.09179131 13.28074512 -402.41195679 13.18405151 C-380.1628176 12.59823834 -357.92183578 11.95450943 -335.6875 10.9375 C-320.78920573 10.25646353 -305.90157996 9.75960759 -290.99105835 9.44747925 C-277.15058604 9.15369683 -263.32931709 8.62369274 -249.5 8 C-234.00028141 7.30097329 -218.51095003 6.77180235 -202.99902344 6.44775391 C-188.16492676 6.13281107 -173.35210492 5.53575923 -158.53018188 4.86575317 C-142.61267055 4.1497451 -126.70016884 3.64871152 -110.76953125 3.34179688 C-103.2267472 3.19105199 -95.70676995 2.96025275 -88.17578125 2.50390625 C-78.89406311 1.94383274 -69.61489822 1.73205563 -60.31900024 1.5541687 C-55.49766408 1.46152397 -50.67655586 1.35863566 -45.85546875 1.25390625 C-44.91346115 1.23344742 -43.97145355 1.21298859 -43.00090027 1.19190979 C-34.26315918 0.99546824 -25.53237704 0.68973842 -16.80078125 0.3046875 C-11.19332954 0.06054283 -5.61306583 -0.04013428 0 0 Z " fill="#045352" transform="translate(963,67)"/>
<path d="M0 0 C2.39995348 -0.00135719 4.79990674 -0.0031389 7.19985962 -0.00531006 C13.01599512 -0.00937962 18.83211609 -0.00880668 24.64825203 -0.00589742 C29.3883344 -0.00362615 34.12841317 -0.00333829 38.86849594 -0.00442123 C39.88595867 -0.00465108 39.88595867 -0.00465108 40.92397621 -0.00488558 C42.30273025 -0.00520536 43.6814843 -0.00552957 45.06023835 -0.00585817 C57.96206094 -0.00870325 70.8638764 -0.0054428 83.76569782 -0.0000578 C94.77348964 0.00439516 105.78127088 0.0036449 116.7890625 -0.00097656 C129.62740657 -0.00636418 142.46574438 -0.00841384 155.30408943 -0.0053643 C156.68165771 -0.00504582 158.059226 -0.00473145 159.43679428 -0.00442123 C160.11422386 -0.00426696 160.79165344 -0.00411268 161.48961119 -0.00395373 C166.20248893 -0.00309999 170.91536141 -0.00457718 175.62823868 -0.00690079 C182.01579624 -0.00983008 188.40333425 -0.00771286 194.79088974 -0.00200653 C197.11089801 -0.00070486 199.43090798 -0.00102772 201.75091553 -0.0032692 C214.18106737 -0.01415326 226.59684083 0.13535367 239.02120972 0.53201294 C240.16683227 0.56498816 241.31245482 0.59796339 242.4927932 0.63193786 C262.14869819 1.33329011 281.44934605 5.6345424 297.08935547 18.12939453 C298.03875 18.83515625 298.03875 18.83515625 299.00732422 19.55517578 C306.82279911 25.67988569 311.34821666 34.44284585 316.06079102 42.99389648 C319.95199565 50.00219343 324.10554839 56.84820364 328.27685547 63.69189453 C328.64425842 64.29476288 329.01166138 64.89763123 329.39019775 65.51876831 C331.2450332 68.56094763 333.10191384 71.60187121 334.95996094 74.64208984 C336.92665075 77.86103522 338.88609224 81.08433747 340.84326172 84.30908203 C346.9145569 94.31058761 353.02831003 104.28388546 359.20019531 114.22363281 C363.15944359 120.60700832 367.06893716 127.01940935 370.96435547 133.44189453 C376.35206142 142.31941557 381.82571213 151.13964406 387.34277344 159.93725586 C391.96348786 167.3112303 396.53647127 174.71337341 401.08935547 182.12939453 C408.07428079 193.5026218 415.13023126 204.82984495 422.21728516 216.13964844 C424.12770461 219.19063912 426.03482608 222.24366731 427.94091797 225.29736328 C435.81516083 237.91202167 435.81516083 237.91202167 443.74316406 250.49291992 C445.69475911 253.57576647 447.64054295 256.66226142 449.5859375 259.74902344 C450.6180756 261.38321416 451.65306033 263.0156094 452.69042969 264.64648438 C460.84221678 277.47302738 468.5998045 290.37435762 475.08935547 304.12939453 C475.50228725 305.00076994 475.91521904 305.87214535 476.34066391 306.76992607 C485.58303643 327.15755233 485.31429996 346.83182876 485.03483248 368.75496602 C484.98138843 373.70490764 484.97987933 378.65490148 484.97201538 383.60508728 C484.95193915 391.89993245 484.89967452 400.19401495 484.82324219 408.48852539 C484.71592564 420.1363374 484.66558773 431.78387574 484.6274941 443.43209279 C484.57352083 459.09600874 484.5017902 474.76008334 484.36710358 490.42353058 C484.35317561 492.09829773 484.34063021 493.77307714 484.32968521 495.44786644 C484.27362726 503.78130244 484.11699603 512.1028315 483.69833374 520.42674255 C483.66845544 521.12282373 483.63857715 521.81890492 483.60779345 522.53607947 C483.25586797 528.70362419 481.6009206 533.11166412 478.08935547 538.12939453 C477.48220703 539.00724609 476.87505859 539.88509766 476.24951172 540.78955078 C472.15175826 546.21506793 467.55683878 550.70523068 462.27685547 554.94189453 C461.74519775 555.3736499 461.21354004 555.80540527 460.66577148 556.25024414 C458.85971374 557.63729011 456.98837235 558.87225428 455.08935547 560.12939453 C454.40229019 560.63968704 453.71522491 561.14997955 453.00733948 561.67573547 C442.0557734 568.54890083 429.20353122 566.87555721 416.76123047 566.71533203 C414.20006305 566.70412729 411.63888268 566.69559315 409.07769775 566.68960571 C403.05347049 566.66913147 397.03003855 566.62197163 391.00612855 566.56150877 C384.14029537 566.49411236 377.27442807 566.4613721 370.4083457 566.43133616 C356.30164977 566.36886016 342.1955392 566.263534 328.08935547 566.12939453 C327.67374611 565.23800781 327.67374611 565.23800781 327.2497406 564.32861328 C325.97083638 561.59315847 324.68444965 558.86128452 323.39794922 556.12939453 C322.96236694 555.19482422 322.52678467 554.26025391 322.07800293 553.29736328 C306.74718648 520.83377417 278.97623788 496.36045569 245.28540039 484.09326172 C229.30461258 478.62361598 212.90518345 476.70738217 196.08935547 476.12939453 C195.06455078 476.08814453 194.03974609 476.04689453 192.98388672 476.00439453 C147.93024055 475.07184817 109.04778396 491.51994851 76.58935547 522.25439453 C66.09533959 533.09500176 57.9345688 545.39518729 50.91748047 558.69189453 C49.08935547 562.12939453 49.08935547 562.12939453 48.08935547 563.12939453 C45.48975263 563.24047918 42.91647077 563.28678634 40.31591797 563.29052734 C39.50117508 563.29549225 38.68643219 563.30045715 37.84700012 563.30557251 C35.13611011 563.32024291 32.42527876 563.327007 29.71435547 563.33251953 C27.83162433 563.33827049 25.94889321 563.34402823 24.06616211 563.34979248 C20.10823289 563.36031872 16.15032407 563.36614959 12.19238281 563.36962891 C7.13633522 563.37509283 2.08055978 563.3990687 -2.97540283 563.42760086 C-6.87034875 563.44629433 -10.76523031 563.45143658 -14.66021729 563.45296478 C-16.52282181 563.45598075 -18.38542548 563.4639734 -20.24798584 563.47714996 C-22.8662122 563.49433788 -25.48378983 563.49229852 -28.10205078 563.48583984 C-29.24337715 563.49966202 -29.24337715 563.49966202 -30.40776062 563.51376343 C-36.96875648 563.46344297 -43.58120763 562.45883143 -48.34814453 557.69189453 C-54.09987483 548.25905684 -53.05625385 537.83729641 -53.03762817 527.05731201 C-53.03878249 525.64748477 -53.04037209 524.23765783 -53.04235542 522.82783151 C-53.04651363 518.97107624 -53.0444731 515.11434586 -53.0413692 511.25759053 C-53.03909788 507.08156117 -53.04260542 502.90553597 -53.04534912 498.72950745 C-53.04980451 490.51365497 -53.04882637 482.29781163 -53.04593648 474.0819588 C-53.04365891 467.31534249 -53.04338009 460.54872871 -53.0444603 453.78211212 C-53.04461353 452.81052767 -53.04476676 451.83894321 -53.04492464 450.83791681 C-53.04524453 448.86093869 -53.04556875 446.88396057 -53.04589723 444.90698245 C-53.04875704 426.29521445 -53.04546874 407.68345135 -53.04009686 389.07168415 C-53.03573221 373.48072951 -53.03639825 357.88978259 -53.04101562 342.29882812 C-53.05348912 298.03065147 -53.03861702 253.76269589 -52.96147537 209.4945755 C-52.95471482 205.55440794 -52.94807351 201.61424019 -52.94152832 197.67407227 C-52.93990376 196.70191826 -52.93827921 195.72976425 -52.93660542 194.72815102 C-52.91099658 178.98439721 -52.91100003 163.24074201 -52.92061909 147.49697456 C-52.92988316 131.52782785 -52.91367962 115.55886817 -52.87172544 99.58977246 C-52.84738165 90.03150222 -52.84255021 80.47367724 -52.86511317 70.91540033 C-52.87830727 64.50213671 -52.86602191 58.08924487 -52.8332257 51.67605251 C-52.8152208 48.01328954 -52.80823343 44.35142558 -52.83212805 40.68867588 C-52.85766441 36.73306273 -52.82893724 32.77887738 -52.7951355 28.82330322 C-52.81114811 27.68776308 -52.82716072 26.55222293 -52.84365857 25.38227248 C-52.7040636 17.05238024 -50.15190871 11.58569957 -44.91064453 5.12939453 C-35.3278766 -3.98754171 -12.29549467 -0.01172078 0 0 Z M24.33935547 45.31689453 C18.09268561 53.12523185 16.97571456 59.98521568 16.77294922 69.85595703 C16.75203217 70.7515181 16.73111511 71.64707916 16.70956421 72.56977844 C16.64184825 75.63121802 16.58324457 78.69272599 16.52685547 81.75439453 C16.50634125 82.82932159 16.48582703 83.90424866 16.46469116 85.01174927 C16.01909181 109.33096319 15.94720754 133.6536207 15.90813065 157.97631073 C15.90189771 161.04609161 15.8919951 164.11584043 15.881073 167.18560791 C15.8641881 172.11769451 15.85828574 177.04968794 15.86009598 181.98180199 C15.85930807 183.80612841 15.8552664 185.63045723 15.84748459 187.45476723 C15.80920754 197.16840002 16.08163344 206.79159772 16.93579102 216.47143555 C17.00760747 217.33696265 17.07942392 218.20248976 17.15341663 219.09424496 C18.11499684 228.88519231 21.82002932 237.04329844 29.24169922 243.73095703 C37.08485892 249.66721744 45.0852222 250.21842658 54.69726562 250.3347168 C55.42156265 250.34461073 56.14585968 250.35450466 56.8921051 250.36469841 C59.30417699 250.39630118 61.71626516 250.42120506 64.12841797 250.44580078 C65.87584735 250.46663053 67.62327365 250.48772051 69.37069702 250.50904846 C74.14598722 250.56552562 78.92132506 250.61494072 83.69671631 250.66202545 C86.73450745 250.692094 89.77228283 250.72348486 92.81005859 250.75506592 C161.32782275 251.4576673 229.85462185 251.41943196 298.37280273 250.78151703 C301.37783388 250.75460962 304.38287497 250.73092161 307.38793945 250.70806885 C312.04986786 250.67189792 316.71159075 250.62574223 321.37334251 250.57145691 C323.06447408 250.5530986 324.75564279 250.53784197 326.44683266 250.52601624 C342.21401642 250.77200384 342.21401642 250.77200384 356.08935547 244.12939453 C359.75304227 240.08882128 359.661645 236.83377248 359.47216797 231.54736328 C356.89453485 208.53278183 340.07621693 184.66740575 328.74121094 165.01416016 C326.43047639 160.97874198 324.17127487 156.9153087 321.91040039 152.85180664 C315.08961294 140.59560062 308.09059271 128.45232821 300.98583984 116.35888672 C298.94939177 112.89105265 296.91738927 109.4206404 294.88623047 105.94970703 C291.30288341 99.82737815 287.71374963 93.70846572 284.12158203 87.59130859 C282.80197905 85.34398473 281.48384805 83.09581889 280.16650391 80.84716797 C278.41419113 77.85639252 276.65850287 74.8676255 274.90185547 71.87939453 C274.39775146 71.01749512 273.89364746 70.1555957 273.37426758 69.26757812 C270.9781111 65.20003104 268.52931359 61.16937358 265.97998047 57.19580078 C265.52268555 56.48109619 265.06539062 55.7663916 264.59423828 55.0300293 C257.79489912 46.44260954 242.87481506 44.00996927 232.65026569 42.5362978 C228.54199444 42.06684789 224.45023381 41.79988486 220.32182312 41.58769226 C219.48902224 41.54474586 218.65622136 41.50179946 217.7981841 41.45755166 C209.19567096 41.04335192 200.60568498 40.98104696 191.99487305 40.98413086 C190.28093393 40.98112743 188.56699547 40.97772226 186.85305786 40.97395325 C182.2649455 40.96524089 177.67685185 40.96278095 173.088732 40.96213746 C170.21460103 40.96142097 167.34047465 40.95927575 164.46634483 40.95664024 C154.42002439 40.94743751 144.3737171 40.94329998 134.32739258 40.9440918 C124.98803123 40.94469503 115.64872718 40.93408227 106.30938035 40.91834813 C98.25628223 40.90526783 90.20320287 40.89990793 82.15009421 40.90054721 C77.35462295 40.90080153 72.55920303 40.89798464 67.76374245 40.88736916 C63.2647611 40.87767694 58.76588022 40.87761665 54.26689529 40.88488579 C52.62059189 40.88592939 50.97428217 40.88358209 49.32798958 40.87752533 C47.07428088 40.86977225 44.8209166 40.87447138 42.56721497 40.88215637 C40.67952754 40.88133922 40.67952754 40.88133922 38.75370502 40.88050556 C33.38219947 41.24534752 28.65190566 41.88645688 24.33935547 45.31689453 Z M413.90185547 458.37939453 C406.12021265 470.18602502 406.73886322 484.63723511 406.77368164 498.27832031 C406.77686749 500.88924999 406.75320162 503.49907062 406.72802734 506.10986328 C406.72575589 507.79866396 406.72505014 509.48746763 406.72607422 511.17626953 C406.7122596 512.32503571 406.7122596 512.32503571 406.69816589 513.49700928 C406.7481978 519.42625552 407.38654264 526.35601265 411.70292664 530.78509521 C417.06644674 534.98629008 423.24682668 536.58111867 430.03857422 536.38330078 C435.93273073 535.65354807 440.17213753 533.60600601 444.08935547 529.12939453 C447.49026664 519.75864794 446.3936299 508.29758531 446.35009766 498.45678711 C446.33936496 495.56944848 446.35004867 492.68273008 446.36279297 489.79541016 C447.06591238 471.79262697 447.06591238 471.79262697 438.94091797 456.65673828 C434.52957656 453.01784695 429.78214464 452.73103802 424.26513672 452.87939453 C419.7870013 453.39393792 416.99032675 455.20268121 413.90185547 458.37939453 Z " fill="#F2E8BC" transform="translate(1222.91064453125,216.87060546875)"/>
<path d="M0 0 C5.01958134 0.00347383 10.03916069 0.00105596 15.05874249 -0.00057749 C23.83473584 -0.00263968 32.61072236 -0.00102733 41.38671491 0.00306072 C54.436078 0.0091224 67.48543683 0.00939406 80.53480107 0.00851873 C102.49118325 0.00720798 124.44756274 0.01052691 146.40394399 0.01653614 C168.13225631 0.02246867 189.86056738 0.02631324 211.58888051 0.02738895 C212.26492696 0.02742336 212.9409734 0.02745777 213.63750611 0.02749323 C219.81260263 0.02780645 225.98769915 0.02809414 232.16279568 0.0283512 C247.50996314 0.02899041 262.85713056 0.02994961 278.20429799 0.0311264 C279.25234321 0.03120638 279.25234321 0.03120638 280.32156106 0.03128797 C314.26770333 0.03390633 348.21384478 0.04021258 382.15998647 0.04682674 C393.93267119 0.0491185 405.70535592 0.05139392 417.47804067 0.05360164 C418.57333005 0.05380707 418.57333005 0.05380707 419.69074649 0.05401664 C453.66755878 0.06036663 487.6443712 0.06408822 521.62118393 0.06713644 C523.82834836 0.0673345 526.03551279 0.06753369 528.24267723 0.06773312 C542.87028807 0.06905296 557.49789893 0.0703276 572.12550978 0.07157198 C601.22813171 0.07404815 630.33075361 0.07678982 659.4333755 0.07971402 C660.81916095 0.07985326 662.20494639 0.07999232 663.59073184 0.08013119 C735.12545969 0.08730138 806.66018672 0.09870449 878.19491383 0.11115779 C879.68927599 0.1114179 879.68927599 0.1114179 881.21382727 0.11168326 C900.78588687 0.11509758 920.35794643 0.11869983 939.930006 0.12226619 C939.930006 45.66226619 939.930006 91.20226619 939.930006 138.12226619 C703.650006 138.12226619 467.370006 138.12226619 223.930006 138.12226619 C219.970006 130.20226619 219.970006 130.20226619 215.930006 122.12226619 C208.20794649 107.29440273 198.95411631 94.74099245 187.39826772 82.65791072 C186.40021801 81.6140576 185.4072181 80.56535773 184.41877553 79.51240291 C157.38548282 50.79006257 122.02061879 37.46859348 82.930006 36.12226619 C45.2826147 35.73859851 7.21543529 47.84975226 -21.069994 73.12226619 C-22.39450572 74.30175838 -22.39450572 74.30175838 -23.74577525 75.50507869 C-25.456566 77.04098861 -27.1613843 78.58358714 -28.8590565 80.13398494 C-30.62079483 81.71830439 -32.40088187 83.21617618 -34.257494 84.68476619 C-37.92879184 87.86655765 -40.94373722 91.41409231 -44.069994 95.12226619 C-44.83440807 95.98722713 -45.59882213 96.85218807 -46.38640025 97.74335994 C-55.47063837 108.2207989 -62.53178408 119.91760767 -69.069994 132.12226619 C-79.10494454 130.98736107 -88.70095881 124.1952015 -95.179369 116.67304744 C-106.40842921 102.56135936 -113.26429886 85.25040691 -114.069994 67.12226619 C-114.1215565 66.32304744 -114.173119 65.52382869 -114.226244 64.70039119 C-114.75620457 49.77316855 -111.20506763 35.15083036 -101.84733775 23.30976619 C-88.67614115 9.26048982 -70.16978168 1.13212611 -51.06854442 0.5047821 C-49.52932617 0.4483343 -49.52932617 0.4483343 -47.9590126 0.39074614 C-31.97979723 -0.12093047 -15.98533313 -0.01466331 0 0 Z " fill="#F2E8BC" transform="translate(179.06999400258064,655.8777338070795)"/>
<path d="M0 0 C0.66257812 0.16628906 1.32515625 0.33257812 2.0078125 0.50390625 C25.84708892 6.71684508 48.17987542 20.45870224 61 42 C65.7893474 50.65793407 70.05773232 59.53492726 73 69 C73.21269531 69.680625 73.42539062 70.36125 73.64453125 71.0625 C76.6506556 81.78938976 76 92.96197757 76 104 C54.88 104 33.76 104 12 104 C10.02 99.05 10.02 99.05 8 94 C1.50118366 84.17956642 -4.74578314 79.49454186 -16 76 C-17.485 75.505 -17.485 75.505 -19 75 C-22.5161878 74.74263237 -26.03788727 74.76856281 -29.5625 74.75 C-30.51447266 74.729375 -31.46644531 74.70875 -32.44726562 74.6875 C-40.88952332 74.64152446 -48.53582637 76.23356991 -55.9375 80.4375 C-56.64777344 80.82808594 -57.35804688 81.21867187 -58.08984375 81.62109375 C-60.95564108 83.68985952 -62.67090814 85.688402 -63.5390625 89.1484375 C-63.6687479 92.50846828 -63.70328165 94.98341842 -61.74609375 97.8125 C-51.61344254 107.21635263 -35.52898498 107.21868664 -22.5625 107.4375 C4.67356007 108.18992684 32.2005472 112.92446581 53 132 C53.70511719 132.62519531 54.41023437 133.25039062 55.13671875 133.89453125 C68.28920106 146.19523375 77.12842149 165.32915469 78.1953125 183.28759766 C79.00626642 208.24808367 76.0119321 229.76129724 58.8125 249.0859375 C39.93915794 269.22193273 11.45508063 279.01987458 -15.54052734 280.14794922 C-19.34047804 280.24733635 -23.13631028 280.29544775 -26.9375 280.3125 C-28.12118164 280.31813965 -29.30486328 280.3237793 -30.52441406 280.32958984 C-58.04981215 280.10321704 -84.52916634 271.93491852 -104.546875 252.53125 C-126.71859261 229.02030113 -130.38664197 200.91543008 -130.125 170 C-130.08375 163.07 -130.0425 156.14 -130 149 C-109.54 149 -89.08 149 -68 149 C-66.35 153.29 -64.7 157.58 -63 162 C-60.91251909 165.47029134 -60.91251909 165.47029134 -59 168 C-58.67 168.99 -58.34 169.98 -58 171 C-56.23408113 172.00916033 -56.23408113 172.00916033 -54 173 C-53.13375 173.639375 -52.2675 174.27875 -51.375 174.9375 C-42.37165416 180.43954468 -32.1766516 181.19717102 -21.875 181.25 C-20.89273438 181.270625 -19.91046875 181.29125 -18.8984375 181.3125 C-7.78047015 181.37101562 4.28281595 178.9631413 12.5 170.9375 C15.55636781 167.05214476 15.81276 163.42532178 15.5078125 158.5859375 C14.70186229 154.48179104 13.18718234 152.66682604 10 150 C-0.44143296 143.54046944 -14.87708002 141.97063726 -26.91015625 141.7890625 C-28.21919922 141.76295898 -29.52824219 141.73685547 -30.87695312 141.70996094 C-31.56023682 141.69670776 -32.24352051 141.68345459 -32.94750977 141.6697998 C-62.35534621 141.04688188 -92.81286419 138.30624262 -115.1484375 116.9453125 C-126.05419561 105.55305217 -128.35668659 92.41419829 -128.3125 77.1875 C-128.32861328 76.08857422 -128.34472656 74.98964844 -128.36132812 73.85742188 C-128.37114461 57.19884905 -122.70891472 43.62865537 -112 31 C-110.83984375 29.53820312 -110.83984375 29.53820312 -109.65625 28.046875 C-94.24069752 9.59927804 -67.439112 -0.18041322 -44.23510742 -2.82128906 C-29.43112622 -4.00496074 -14.42478472 -3.66389532 0 0 Z " fill="#F1E7BB" transform="translate(411,121)"/>
<path d="M0 0 C19.47 0 38.94 0 59 0 C59 55.77 59 111.54 59 169 C99.26 169 139.52 169 181 169 C181 203.98 181 238.96 181 275 C121.27 275 61.54 275 0 275 C0 184.25 0 93.5 0 0 Z " fill="#F1E7BB" transform="translate(686,122)"/>
<path d="M0 0 C58.41 0 116.82 0 177 0 C177 28.05 177 56.1 177 85 C157.53 85 138.06 85 118 85 C118 147.7 118 210.4 118 275 C98.53 275 79.06 275 59 275 C59 212.3 59 149.6 59 85 C39.53 85 20.06 85 0 85 C0 56.95 0 28.9 0 0 Z " fill="#F2E7BB" transform="translate(497,122)"/>
<path d="M0 0 C1.02716909 0.8967854 2.05080601 1.79763788 3.0703125 2.703125 C3.95976562 3.49203125 4.84921875 4.2809375 5.765625 5.09375 C26.01735117 24.26623058 39.46436644 52.09195226 40.25 80.0546875 C40.84287568 114.3559658 31.27528763 143.21071706 7.76635742 168.52709961 C-11.9949673 188.86895287 -40.71125042 201.53355546 -69.04199219 201.99560547 C-87.98756633 202.10357997 -104.71339386 199.80380465 -121.9296875 191.703125 C-122.54650391 191.41453613 -123.16332031 191.12594727 -123.79882812 190.82861328 C-151.20054546 177.78387194 -171.05774205 154.8534237 -181.9296875 126.703125 C-191.89479453 97.19710815 -190.25812593 65.58486981 -176.87304688 37.48486328 C-172.28252683 28.36792505 -166.86989208 20.22167996 -159.9296875 12.703125 C-159.39601562 12.12175781 -158.86234375 11.54039062 -158.3125 10.94140625 C-116.98776437 -33.59747549 -47.21636435 -39.89859596 0 0 Z M-127.9296875 24.703125 C-128.83460938 25.51523437 -129.73953125 26.32734375 -130.671875 27.1640625 C-145.280093 40.96296094 -155.64175462 59.53923519 -156.36328125 79.91015625 C-156.38685771 82.4452032 -156.38759536 84.98055056 -156.3671875 87.515625 C-156.36381378 88.17643066 -156.36044006 88.83723633 -156.35696411 89.51806641 C-156.20620558 109.89544056 -150.41210965 126.2347029 -136.9296875 141.703125 C-136.47335938 142.30253906 -136.01703125 142.90195312 -135.546875 143.51953125 C-124.08778166 158.30656488 -104.68761651 167.24637413 -86.62109375 170.25390625 C-64.49815482 172.94611575 -41.89267605 168.29956466 -23.9296875 154.703125 C-5.73155499 139.86284146 6.20528746 120.19139062 9.0703125 96.703125 C10.21556667 77.53419872 6.72374303 61.32929139 -2.9296875 44.703125 C-3.43628906 43.83042969 -3.94289063 42.95773437 -4.46484375 42.05859375 C-15.88312518 23.89748317 -33.60584637 12.16537866 -54.06298828 6.5168457 C-59.99671007 5.26813408 -65.85181433 5.10639695 -71.88867188 5.18164062 C-73.9295925 5.203124 -75.96699605 5.18168683 -78.0078125 5.15625 C-96.88449974 5.11481766 -113.99055446 12.01896213 -127.9296875 24.703125 Z " fill="#F3E8BC" transform="translate(324.9296875,742.296875)"/>
<path d="M0 0 C4.23949792 3.42652602 8.12814155 7.16877575 12 11 C13.08861328 11.99773438 13.08861328 11.99773438 14.19921875 13.015625 C32.14297855 29.79603691 43.73653237 56.04686915 45.20532227 80.4050293 C45.30306244 84.00191753 45.32919016 87.58933909 45.3125 91.1875 C45.30686035 92.46326904 45.3012207 93.73903809 45.29541016 95.0534668 C44.9535308 121.70820954 36.00814046 145.41265869 19 166 C17.76830078 167.49660156 17.76830078 167.49660156 16.51171875 169.0234375 C-0.78898601 189.2970402 -27.61635748 203.15292782 -54.1328125 205.79296875 C-90.34158775 207.73141833 -119.94406465 199.20912892 -147.625 175.25 C-168.61032744 155.68178519 -181.32730138 128.21613228 -182.34765625 99.61328125 C-182.95119649 67.83807863 -175.37655835 41.58333169 -155 17 C-154.36578125 16.20078125 -153.7315625 15.4015625 -153.078125 14.578125 C-116.26362176 -29.78807121 -44.77882279 -33.64549158 0 0 Z M-131.1328125 36.890625 C-147.91395782 55.84840424 -152.40518406 77.37780234 -151.21875 102.01855469 C-149.99148259 118.74555206 -142.32561793 134.74406345 -131 147 C-130.154375 147.92554688 -129.30875 148.85109375 -128.4375 149.8046875 C-113.83051087 165.11712781 -94.15116734 174.42800669 -72.87109375 175.203125 C-49.46688028 175.618289 -28.64398408 168.54366256 -11.41015625 152.375 C4.76763385 136.43319063 14.14056803 117.62412662 14.36328125 94.790802 C14.43250625 82.73537632 14.16949891 72.10253156 9 61 C8.70528809 60.36078613 8.41057617 59.72157227 8.10693359 59.06298828 C4.10169663 50.54639237 -0.67014453 43.00762203 -7 36 C-7.66386719 35.24332031 -8.32773438 34.48664062 -9.01171875 33.70703125 C-24.02435668 17.58440161 -45.14511261 9.83221572 -66.83203125 8.875 C-92.06935881 8.34577688 -113.76570873 18.89579459 -131.1328125 36.890625 Z " fill="#F3E7BC" transform="translate(1475,738)"/>
<path d="M0 0 C3.97891352 -0.11735877 7.9573746 -0.18763654 11.9375 -0.25 C13.05447266 -0.28351563 14.17144531 -0.31703125 15.32226562 -0.3515625 C23.29886712 -0.44512967 29.7557626 0.52744213 36.0625 5.6875 C37.87510697 10.15859719 37.7668369 14.65413874 36.2734375 19.22265625 C34.2892137 23.53793972 32.13870135 26.49752942 28 29 C25.67584427 29.69798926 23.34302409 30.36823501 21 31 C21.31807617 31.97610229 21.31807617 31.97610229 21.64257812 32.97192383 C22.59958001 35.91733376 23.54986142 38.8648693 24.5 41.8125 C24.83386719 42.83666016 25.16773438 43.86082031 25.51171875 44.91601562 C25.82753906 45.89892578 26.14335938 46.88183594 26.46875 47.89453125 C26.76201172 48.80050049 27.05527344 49.70646973 27.35742188 50.63989258 C28 53 28 53 28 56 C24.7 56 21.4 56 18 56 C16.82882795 52.20970992 15.66382785 48.41755098 14.5 44.625 C14.16613281 43.54476562 13.83226562 42.46453125 13.48828125 41.3515625 C13.17246094 40.3203125 12.85664062 39.2890625 12.53125 38.2265625 C12.23798828 37.27346191 11.94472656 36.32036133 11.64257812 35.33837891 C11 33 11 33 11 31 C7.37 31 3.74 31 0 31 C-0.12246094 32.1446875 -0.24492188 33.289375 -0.37109375 34.46875 C-0.92686968 38.91495746 -1.92802708 43.17056269 -3.0625 47.5 C-3.24876953 48.22703125 -3.43503906 48.9540625 -3.62695312 49.703125 C-4.08026455 51.46987724 -4.5395002 53.23510775 -5 55 C-7.64 55 -10.28 55 -13 55 C-12.29258598 47.53492044 -10.53624422 40.39759941 -8.75 33.125 C-8.28291626 31.20554565 -8.28291626 31.20554565 -7.80639648 29.24731445 C-5.40054458 19.44045677 -2.81676114 9.69640815 0 0 Z " fill="#EAE2B8" transform="translate(572,438)"/>
<path d="M0 0 C3.88490625 2.30055901 6.69924834 4.77741773 8.41015625 9.0546875 C8.44936109 10.720893 8.4545849 12.38861311 8.41015625 14.0546875 C6.78524671 14.08166939 5.16020992 14.10107507 3.53515625 14.1171875 C2.17777344 14.13458984 2.17777344 14.13458984 0.79296875 14.15234375 C-1.58984375 14.0546875 -1.58984375 14.0546875 -3.58984375 13.0546875 C-5.08741246 12.95969247 -6.58927307 12.92481552 -8.08984375 12.9296875 C-8.88390625 12.92710937 -9.67796875 12.92453125 -10.49609375 12.921875 C-12.64902909 12.92190754 -12.64902909 12.92190754 -14.58984375 14.0546875 C-14.58984375 15.0446875 -14.58984375 16.0346875 -14.58984375 17.0546875 C-1.22484375 17.5496875 -1.22484375 17.5496875 12.41015625 18.0546875 C12.41015625 22.6746875 12.41015625 27.2946875 12.41015625 32.0546875 C11.42015625 32.0546875 10.43015625 32.0546875 9.41015625 32.0546875 C9.41015625 37.3346875 9.41015625 42.6146875 9.41015625 48.0546875 C5.78015625 48.0546875 2.15015625 48.0546875 -1.58984375 48.0546875 C-1.91984375 46.7346875 -2.24984375 45.4146875 -2.58984375 44.0546875 C-3.37359375 44.7146875 -4.15734375 45.3746875 -4.96484375 46.0546875 C-9.24614689 48.89536257 -13.6269661 48.85358976 -18.58984375 48.0546875 C-23.13695677 45.82246838 -25.3521239 43.54295082 -27.58984375 39.0546875 C-27.98828125 36.08203125 -27.98828125 36.08203125 -27.96484375 32.9921875 C-27.97257813 31.96996094 -27.9803125 30.94773437 -27.98828125 29.89453125 C-27.54254769 26.71758715 -26.5418898 25.51480033 -24.58984375 23.0546875 C-25.19993039 21.03670862 -25.87841287 19.03920521 -26.58984375 17.0546875 C-27.2577348 13.03266226 -27.48744546 9.59343329 -25.38671875 5.9921875 C-18.96046688 -1.79720871 -9.62121132 -3.51181469 0 0 Z " fill="#ECE3B9" transform="translate(657.58984375,349.9453125)"/>
<path d="M0 0 C2.847 2.3725 2.847 2.3725 3.1484375 4.41796875 C3.33431522 8.68600706 3.17956441 11.03458836 1 14.8125 C-2.59718343 18.54522947 -7.44441295 20.50849481 -12.125 22.5625 C-9.47174578 30.16119878 -9.47174578 30.16119878 -4.125 35.5625 C-3.856875 34.881875 -3.58875 34.20125 -3.3125 33.5 C-1.96446694 30.16539191 -0.54963702 26.86506763 0.875 23.5625 C2.855 24.2225 4.835 24.8825 6.875 25.5625 C5.20702147 31.24879044 3.29275446 35.73050231 -0.125 40.5625 C-0.125 41.2225 -0.125 41.8825 -0.125 42.5625 C2.185 43.2225 4.495 43.8825 6.875 44.5625 C6.875 46.5425 6.875 48.5225 6.875 50.5625 C5.48017921 50.64454828 4.08391272 50.70216204 2.6875 50.75 C1.91019531 50.78480469 1.13289062 50.81960938 0.33203125 50.85546875 C-2.125 50.5625 -2.125 50.5625 -4.57421875 48.96875 C-7.04527074 47.27705217 -7.04527074 47.27705217 -9.8515625 47.92578125 C-10.80804687 48.23902344 -11.76453125 48.55226563 -12.75 48.875 C-19.97353244 50.92107446 -26.70346439 52.2732678 -33.625 48.8125 C-38.89285714 44.07142857 -38.89285714 44.07142857 -39.625 39.3125 C-38.86602528 33.62018961 -36.61780384 29.53577111 -32.08203125 25.9453125 C-26.83580508 22.5625 -26.83580508 22.5625 -24.125 22.5625 C-24.455 21.5725 -24.785 20.5825 -25.125 19.5625 C-25.89794423 13.13819306 -25.09107103 7.79157579 -21.125 2.5625 C-15.00523818 -2.43322393 -7.25364353 -3.33667602 0 0 Z " fill="#E9E2B7" transform="translate(524.125,441.4375)"/>
<path d="M0 0 C1.98 0 3.96 0 6 0 C4.89644911 7.55607786 3.40656211 14.74822618 1 22 C1.61746094 21.69964844 2.23492188 21.39929688 2.87109375 21.08984375 C8.89406233 18.38546668 13.55349308 17.0734577 20 19 C24.35445423 21.25786516 27.16135677 23.40339193 29 28 C30.04876477 34.64217687 28.64841551 40.38389972 25 46 C19.57547191 52.19260286 13.2499706 55.87158427 5 56.5 C0.19576253 56.34748452 -3.24782756 53.79417096 -7 51 C-7 52.32 -7 53.64 -7 55 C-9.31 55 -11.62 55 -14 55 C-11.98811118 45.42403305 -9.84515163 35.8902662 -7.5625 26.375 C-7.27568359 25.15554688 -6.98886719 23.93609375 -6.69335938 22.6796875 C-4.84385561 14.96861612 -2.64446485 7.47614582 0 0 Z " fill="#EAE2B8" transform="translate(731,444)"/>
<path d="M0 0 C9.57 0.33 19.14 0.66 29 1 C26.75 14.5 26.75 14.5 25.7109375 18.984375 C25.38222656 20.41523438 25.38222656 20.41523438 25.046875 21.875 C24.71429687 23.298125 24.71429687 23.298125 24.375 24.75 C24.14554688 25.74515625 23.91609375 26.7403125 23.6796875 27.765625 C23.12301994 30.17785111 22.56310432 32.58926995 22 35 C22.99 35 23.98 35 25 35 C25 36.65 25 38.3 25 40 C17.25 40.125 17.25 40.125 15 39 C14.375 36.9375 14.375 36.9375 14 35 C13.32517578 35.54140625 13.32517578 35.54140625 12.63671875 36.09375 C6.87162587 40.25293525 2.0113381 41.00467345 -5 40 C-10.55319149 37.89361702 -10.55319149 37.89361702 -12 35 C-12.42222151 31.28445073 -12.13020872 29.27126817 -10.5 25.875 C-4.67068639 19.17128935 2.15143423 18.43166742 10.73046875 17.58984375 C14.33291222 16.93994057 16.21900297 16.38714253 19 14 C19.99 11.36 20.98 8.72 22 6 C16.06 6 10.12 6 4 6 C3.34 8.31 2.68 10.62 2 13 C0.35 13 -1.3 13 -3 13 C-2.01 8.71 -1.02 4.42 0 0 Z " fill="#E4DEB5" transform="translate(688,459)"/>
<path d="M0 0 C10.06394247 -0.1176305 19.96557967 0.12198822 30 1 C29.61908203 2.61455078 29.61908203 2.61455078 29.23046875 4.26171875 C28.32925442 8.0835351 27.43177887 11.90622263 26.53466797 15.72900391 C26.04876987 17.79285054 25.55837123 19.8555618 25.06640625 21.91796875 C24.79699219 23.05878906 24.52757812 24.19960938 24.25 25.375 C24.00765625 26.39335937 23.7653125 27.41171875 23.515625 28.4609375 C22.90049266 31.05818337 22.90049266 31.05818337 23 34 C23.99 34.33 24.98 34.66 26 35 C25.67 36.65 25.34 38.3 25 40 C22.36 40 19.72 40 17 40 C16.34 38.02 15.68 36.04 15 34 C14.195625 34.928125 14.195625 34.928125 13.375 35.875 C8.69600439 40.06146975 3.48156289 40.46966485 -2.5859375 40.3046875 C-6.39098493 39.8244388 -8.3668664 38.77171958 -11 36 C-11.89819785 30.93743032 -11.6592624 29.09190334 -9 24.6875 C-3.40813805 18.9558415 4.39598102 18.49339619 11.94921875 17.625 C15.4038377 16.91726757 17.29746345 16.28357433 20 14 C20.99 11.36 21.98 8.72 23 6 C16.73 6 10.46 6 4 6 C3.67 8.31 3.34 10.62 3 13 C1.02 13 -0.96 13 -3 13 C-2.01 8.71 -1.02 4.42 0 0 Z " fill="#E4DFB5" transform="translate(385,447)"/>
<path d="M0 0 C2.4375 2.25 2.4375 2.25 5.4375 6.25 C5.4375 10.54 5.4375 14.83 5.4375 19.25 C-4.7925 18.92 -15.0225 18.59 -25.5625 18.25 C-24.49844974 25.7019837 -24.49844974 25.7019837 -21.875 27.75 C-17.29186498 28.74094811 -13.81007272 28.87378636 -9.5625 26.75 C-6.00654741 24.97202371 -3.486143 25.01458142 0.4375 25.25 C-0.96024328 28.66427917 -2.39242529 30.0902322 -5.5625 31.9375 C-6.26375 32.35386719 -6.965 32.77023437 -7.6875 33.19921875 C-12.54830289 35.9232937 -17.05482202 35.7969694 -22.5625 35.25 C-26.26522926 34.02683629 -28.82202894 32.03824339 -31.5 29.1875 C-33.5265823 23.584596 -33.68174295 18.11165414 -31.49609375 12.5234375 C-25.1055315 0.99604728 -12.91399409 -6.34371639 0 0 Z " fill="#E9E1B7" transform="translate(814.5625,466.75)"/>
<path d="M0 0 C3.8951899 3.99769489 5.25576206 7.64893092 5.625 13.1875 C5.375 16.4375 5.375 16.4375 4.375 19.4375 C-5.855 19.1075 -16.085 18.7775 -26.625 18.4375 C-25.30426352 24.93428254 -25.30426352 24.93428254 -22.9375 27.375 C-19.62910123 28.89507511 -17.23262175 28.81070225 -13.625 28.4375 C-12.655625 27.9425 -11.68625 27.4475 -10.6875 26.9375 C-6.69151297 24.98028186 -4.03191365 25.20955619 0.375 25.4375 C-3.2359788 30.40259584 -6.6679869 33.60377597 -12.625 35.4375 C-18.64915298 36.26617019 -23.44128246 35.85116765 -28.625 32.4375 C-31.48537115 30.19006552 -32.61794775 27.92345011 -33.625 24.4375 C-34.43397697 17.50341172 -32.79697818 13.02014706 -28.625 7.4375 C-20.57836472 -0.94374783 -11.43732135 -4.92987989 0 0 Z " fill="#E9E2B7" transform="translate(635.625,459.5625)"/>
<path d="M0 0 C9.71614177 -0.14973506 19.31629705 0.30386731 29 1 C28.125 6.75 28.125 6.75 27 9 C20.4 9 13.8 9 7 9 C6.34 11.97 5.68 14.94 5 18 C4.34 19.98 3.68 21.96 3 24 C9.6 24 16.2 24 23 24 C22 31 22 31 21 32 C19.5112814 32.08669432 18.018555 32.10703494 16.52734375 32.09765625 C15.62822266 32.09443359 14.72910156 32.09121094 13.80273438 32.08789062 C12.38444336 32.07532227 12.38444336 32.07532227 10.9375 32.0625 C9.98810547 32.05798828 9.03871094 32.05347656 8.06054688 32.04882812 C5.70696935 32.0370011 3.35351523 32.02052025 1 32 C0.80664062 32.90621094 0.61328125 33.81242187 0.4140625 34.74609375 C-1.03040864 41.50364438 -2.488657 48.25708507 -4 55 C-7.3 55 -10.6 55 -14 55 C-12.93696673 50.43181957 -11.87071418 45.86440548 -10.80175781 41.29760742 C-10.44024339 39.75125346 -10.07953638 38.20471047 -9.71972656 36.65795898 C-3.7029551 10.80096764 -3.7029551 10.80096764 0 0 Z " fill="#EAE2B8" transform="translate(356,429)"/>
<path d="M0 0 C2.64 0 5.28 0 8 0 C6.68 5.94 5.36 11.88 4 18 C6.97 18 9.94 18 13 18 C12.67 19.65 12.34 21.3 12 23 C8.7 23 5.4 23 2 23 C1.773125 24.485 1.54625 25.97 1.3125 27.5 C-0.06891327 35.21373102 -2.55771486 42.57060589 -5 50 C-1.7 50 1.6 50 5 50 C4.67 51.98 4.34 53.96 4 56 C-1.61 55.67 -7.22 55.34 -13 55 C-11.87581052 46.00648415 -11.87581052 46.00648415 -10.80078125 42.03125 C-10.56375488 41.14123291 -10.32672852 40.25121582 -10.08251953 39.33422852 C-9.82841309 38.39893311 -9.57430664 37.4636377 -9.3125 36.5 C-8.77358879 34.47817097 -8.23586989 32.45602384 -7.69921875 30.43359375 C-7.42126465 29.38800293 -7.14331055 28.34241211 -6.85693359 27.26513672 C-5.39885569 21.70948606 -4.01136635 16.1364037 -2.625 10.5625 C-2.36243408 9.50804687 -2.09986816 8.45359375 -1.8293457 7.3671875 C-1.21854937 4.91170837 -0.60869909 2.45599972 0 0 Z " fill="#EAE2B8" transform="translate(453,433)"/>
<path d="M0 0 C2.64 0 5.28 0 8 0 C7.75983154 0.95994873 7.51966309 1.91989746 7.2722168 2.90893555 C5.64980269 9.3953528 4.02846181 15.88202763 2.41384888 22.37039185 C1.72162032 25.15179442 1.02845146 27.93296229 0.33520508 30.71411133 C-0.01903776 32.13621185 -0.37286605 33.55841568 -0.72631836 34.98071289 C-1.24743665 37.07726104 -1.77005346 39.17343069 -2.29296875 41.26953125 C-2.5974292 42.49260986 -2.90188965 43.71568848 -3.21557617 44.97583008 C-3.74140449 47.00304308 -4.33772453 49.01317359 -5 51 C-1.7 51 1.6 51 5 51 C4.67 52.65 4.34 54.3 4 56 C-1.61 56 -7.22 56 -13 56 C-12.37292186 47.5578435 -10.28578768 39.54567709 -8.1875 31.375 C-7.83996952 30.00143488 -7.49296141 28.62773748 -7.14648438 27.25390625 C-4.84233517 18.14836253 -2.43980123 9.07006953 0 0 Z " fill="#E9E1B7" transform="translate(774,445)"/>
<path d="M0 0 C4.31727781 2.35487881 4.31727781 2.35487881 6 5 C7.09196292 9.33853723 7.01183208 13.17669864 4.81640625 17.1328125 C1.45756981 21.30300424 -1.59195497 23.43662929 -6.9140625 24.31640625 C-9.11097571 24.50976753 -10.8476236 24.49035995 -13 24 C-16.54267741 20.97396305 -17.82195182 19.10785537 -18.5625 14.5 C-17.63405443 8.72300532 -14.3435846 4.78312207 -10 1 C-6.34711807 -0.21762731 -3.84245864 -0.39075851 0 0 Z " fill="#075553" transform="translate(746,469)"/>
<path d="M0 0 C1.134375 0.020625 2.26875 0.04125 3.4375 0.0625 C1.61453658 9.00141714 -0.43899516 17.87842489 -2.5625 26.75 C-2.8114502 27.79406006 -3.06040039 28.83812012 -3.31689453 29.91381836 C-4.94201214 36.66598515 -6.69549337 43.37322049 -8.5625 50.0625 C-5.5925 50.0625 -2.6225 50.0625 0.4375 50.0625 C0.4375 51.7125 0.4375 53.3625 0.4375 55.0625 C-5.5025 55.0625 -11.4425 55.0625 -17.5625 55.0625 C-16.12013804 48.47939059 -14.58748199 41.92357089 -12.99609375 35.375 C-12.75713882 34.39128418 -12.5181839 33.40756836 -12.27198792 32.39404297 C-11.77081984 30.33336323 -11.26909829 28.27281802 -10.7668457 26.21240234 C-9.99566928 23.04471111 -9.22929505 19.87587993 -8.46289062 16.70703125 C-7.9742551 14.70044854 -7.48533321 12.69393554 -6.99609375 10.6875 C-6.65232948 9.26111206 -6.65232948 9.26111206 -6.30162048 7.8059082 C-6.08792313 6.93409912 -5.87422577 6.06229004 -5.65405273 5.1640625 C-5.46689194 4.39400879 -5.27973114 3.62395508 -5.0868988 2.83056641 C-4.11969466 -0.43046536 -3.69576261 0.06483794 0 0 Z " fill="#EAE2B8" transform="translate(658.5625,440.9375)"/>
<path d="M0 0 C2.5 1.125 2.5 1.125 4 3 C4.25 6.1875 4.25 6.1875 4 9 C1.625 9.1875 1.625 9.1875 -1 9 C-1.66 8.01 -2.32 7.02 -3 6 C-5.54207971 5.66656449 -5.54207971 5.66656449 -8 6 C-9.24783106 7.04807795 -9.24783106 7.04807795 -9.33984375 9.36328125 C-9.27488862 12.13344089 -9.27488862 12.13344089 -7.06640625 13.73046875 C-5.82697266 14.45169922 -5.82697266 14.45169922 -4.5625 15.1875 C-0.0756396 17.8487208 -0.0756396 17.8487208 1 20 C1.38893819 24.66725826 1.45147837 27.07967871 -0.625 31.3125 C-3.79991589 34.90516798 -6.44385342 36.63991674 -11.24609375 37.31640625 C-14.97109228 37.5060203 -17.30596748 37.40626294 -20.5625 35.5 C-22.65742367 31.85665449 -22.27769546 29.16543193 -22 25 C-20.02 25 -18.04 25 -16 25 C-15.34 26.98 -14.68 28.96 -14 31 C-11.69 31 -9.38 31 -7 31 C-6.67 28.69 -6.34 26.38 -6 24 C-6.71027344 23.51789063 -7.42054688 23.03578125 -8.15234375 22.5390625 C-9.07144531 21.90742188 -9.99054688 21.27578125 -10.9375 20.625 C-11.85402344 19.99851562 -12.77054687 19.37203125 -13.71484375 18.7265625 C-16 17 -16 17 -17 15 C-17.43752262 11.14980098 -17.14486622 9.2736362 -15.3125 5.8125 C-10.68953019 0.18996915 -7.01786516 -0.66836811 0 0 Z " fill="#E8E1B7" transform="translate(436,450)"/>
<path d="M0 0 C2.20770805 -0.08165496 4.41630425 -0.13948488 6.625 -0.1875 C7.85476563 -0.22230469 9.08453125 -0.25710938 10.3515625 -0.29296875 C14.32482471 0.02608335 16.64288087 0.88826377 20 3 C22.36086122 6.54129184 22.57269578 7.82750218 22 12 C20.17794457 14.92612619 18.13027505 17.43486248 15 19 C13.55151418 19.08342159 12.09929131 19.10732861 10.6484375 19.09765625 C9.79765625 19.09443359 8.946875 19.09121094 8.0703125 19.08789062 C7.18085937 19.07951172 6.29140625 19.07113281 5.375 19.0625 C4.4778125 19.05798828 3.580625 19.05347656 2.65625 19.04882812 C0.43743352 19.03702591 -1.78125018 19.02056155 -4 19 C-3.53704278 13.98888477 -2.9958971 9.24820409 -1.4375 4.4375 C-1.16808594 3.59058594 -0.89867187 2.74367188 -0.62109375 1.87109375 C-0.41613281 1.25363281 -0.21117187 0.63617188 0 0 Z " fill="#075654" transform="translate(579,444)"/>
<path d="M0 0 C2.31 0 4.62 0 7 0 C5.50317373 8.11609864 3.51820275 16.07860758 1.4375 24.0625 C1.12103516 25.29677734 0.80457031 26.53105469 0.47851562 27.80273438 C0.0231543 29.5574707 0.0231543 29.5574707 -0.44140625 31.34765625 C-0.71670166 32.40992432 -0.99199707 33.47219238 -1.27563477 34.56665039 C-2 37 -2 37 -3 38 C-4.99958364 38.04080783 -7.00045254 38.04254356 -9 38 C-8.38736151 31.30862626 -7.212454 24.96212491 -5.625 18.4375 C-5.31175781 17.09655273 -5.31175781 17.09655273 -4.9921875 15.72851562 C-3.68988256 10.30092156 -2.06895742 5.18449272 0 0 Z " fill="#E6E0B6" transform="translate(672,459)"/>
<path d="M0 0 C2.98541851 2.12121841 4.5322364 4.98868892 6.328125 8.1015625 C6.87339844 9.01808594 6.87339844 9.01808594 7.4296875 9.953125 C8.32172252 11.45549977 9.20118329 12.96532801 10.078125 14.4765625 C7.18085911 17.37382839 5.28408222 17.46659683 1.203125 17.6640625 C-2.23205591 17.6197784 -4.85740054 17.14809402 -7.921875 15.4765625 C-9.5239636 12.27238529 -9.41472715 8.95316818 -8.921875 5.4765625 C-6.73235683 1.92803305 -4.60351908 -1.25380398 0 0 Z " fill="#095654" transform="translate(502.921875,467.5234375)"/>
<path d="M0 0 C-1.10069473 5.41174908 -2.05044958 8.92702613 -6 13 C-8.70562743 14.35281371 -10.91893655 14.20609362 -13.9375 14.25 C-14.99839844 14.27578125 -16.05929687 14.3015625 -17.15234375 14.328125 C-20 14 -20 14 -21.8828125 12.640625 C-23 11 -23 11 -22.9375 8.5 C-21.7597767 5.35940453 -20.88337048 4.70610917 -18 3 C-15.26519735 2.32049382 -12.64427495 1.76578919 -9.875 1.3125 C-9.14667969 1.18294922 -8.41835938 1.05339844 -7.66796875 0.91992188 C-2.4015377 0 -2.4015377 0 0 0 Z " fill="#085654" transform="translate(404,468)"/>
<path d="M0 0 C-0.36925404 6.15423406 -1.82877227 8.72703501 -6 13 C-8.58753156 14.29376578 -10.54958985 14.16832397 -13.4375 14.1875 C-14.40558594 14.20167969 -15.37367188 14.21585937 -16.37109375 14.23046875 C-19 14 -19 14 -22 12 C-22.4375 9.0625 -22.4375 9.0625 -22 6 C-17.6203897 1.6203897 -12.3440277 1.71615611 -6.49609375 1.28125 C-4.05141086 1.00579277 -2.42271361 0 0 0 Z " fill="#085654" transform="translate(706,480)"/>
<path d="M0 0 C3.125 2.1875 3.125 2.1875 5 5 C5 6.65 5 8.3 5 10 C-6.385 9.505 -6.385 9.505 -18 9 C-14.61551931 0.53879828 -8.69605827 -1.67844053 0 0 Z " fill="#105B57" transform="translate(629,464)"/>
<path d="M0 0 C1.9375 1.125 1.9375 1.125 3 3 C3.6875 5.875 3.6875 5.875 3 9 C-0.68717786 12.33983502 -5.01453829 14.53261297 -10 15 C-12.50031654 11.24952518 -12.53603554 9.44143734 -12 5 C-8.57775616 0.12589513 -5.85939785 -0.86805894 0 0 Z " fill="#0A5755" transform="translate(518,445)"/>
<path d="M0 0 C3.0625 1.6875 3.0625 1.6875 5 4 C5 5.65 5 7.3 5 9 C-2.26 9 -9.52 9 -17 9 C-13.7619932 0.904983 -8.37524408 -1.52417126 0 0 Z " fill="#075654" transform="translate(808,471)"/>
<path d="M0 0 C0 0.33 0 0.66 0 1 C-3.96 1 -7.92 1 -12 1 C-12 1.66 -12 2.32 -12 3 C-24.37405198 3.13305432 -36.64938342 2.76677886 -49 2 C-49 1.67 -49 1.34 -49 1 C-32.65564152 0.16941765 -16.36458189 -0.13567574 0 0 Z " fill="#ABBB9C" transform="translate(672,416)"/>
<path d="M0 0 C1.65322266 0.01740234 1.65322266 0.01740234 3.33984375 0.03515625 C4.99693359 0.04869141 4.99693359 0.04869141 6.6875 0.0625 C7.54214844 0.07410156 8.39679687 0.08570313 9.27734375 0.09765625 C9.83984375 2.03515625 9.83984375 2.03515625 10.27734375 4.09765625 C9.27734375 5.09765625 9.27734375 5.09765625 6.5546875 5.1953125 C4.90146484 5.17791016 4.90146484 5.17791016 3.21484375 5.16015625 C1.55775391 5.14662109 1.55775391 5.14662109 -0.1328125 5.1328125 C-0.98746094 5.12121094 -1.84210937 5.10960937 -2.72265625 5.09765625 C-3.28515625 3.16015625 -3.28515625 3.16015625 -3.72265625 1.09765625 C-2.72265625 0.09765625 -2.72265625 0.09765625 0 0 Z " fill="#045452" transform="translate(645.72265625,373.90234375)"/>
<path d="M0 0 C2.64 0 5.28 0 8 0 C7.67 2.31 7.34 4.62 7 7 C4.36 7 1.72 7 -1 7 C-0.67 4.69 -0.34 2.38 0 0 Z " fill="#E8E1B7" transform="translate(675,444)"/>
</svg>
